<?xml version="1.0" encoding="UTF-8"?><svg id="Lager_1" xmlns="http://www.w3.org/2000/svg" xmlns:xlink="http://www.w3.org/1999/xlink" viewBox="0 0 486.851 486.851"><defs><style>.cls-1{fill:none;}.cls-2{fill:#fff;}.cls-3{fill:#ff5400;}.cls-4{clip-path:url(#clippath);}</style><clipPath id="clippath"><rect class="cls-1" width="486.851" height="486.851"/></clipPath></defs><g class="cls-4"><path class="cls-2" d="M243.426,57.794c-102.358,0-185.632,83.274-185.632,185.632s83.274,185.632,185.632,185.632,185.636-83.274,185.636-185.632S345.784,57.794,243.426,57.794M243.426,486.851C109.201,486.851,0,377.651,0,243.426S109.201,0,243.426,0s243.426,109.201,243.426,243.426-109.201,243.426-243.426,243.426"/><path class="cls-3" d="M243.423,243.936l-130.759,130.742c-33.885-33.624-54.873-80.238-54.873-131.76,0-50.987,20.581-97.193,53.868-130.746l131.764,131.764Z"/></g></svg>