<?xml version="1.0" encoding="UTF-8"?><svg id="Lager_1" xmlns="http://www.w3.org/2000/svg" viewBox="0 0 133.95 47.066"><defs><style>.cls-1{fill:#232323;}.cls-2{fill:#ff5400;}</style></defs><path class="cls-2" d="M81.658,16.966l-7.695,7.694-.01.01c-1.993-1.981-3.227-4.725-3.227-7.756,0-3.006,1.213-5.729,3.176-7.705l7.756,7.757Z"/><path class="cls-1" d="M62.44,16.902c0-7.905-6.43-14.336-14.335-14.336s-14.336,6.431-14.336,14.336,6.431,14.336,14.336,14.336c6.07,0,11.271-3.792,13.358-9.133h-3.746c-1.852,3.41-5.466,5.729-9.612,5.729-5.557,0-10.159-4.167-10.845-9.542h25.113c.044-.458.067-.921.067-1.39ZM37.359,14.889c.948-5.07,5.406-8.919,10.747-8.919s9.799,3.849,10.746,8.919h-21.493Z"/><path class="cls-1" d="M17.553,2.601c-3.335,0-6.356,1.376-8.521,3.592v-3.479h-3.403v28.377h3.403V14.525c0-4.698,3.822-8.52,8.521-8.52s8.52,3.822,8.52,8.52v16.532h3.403V14.525c0-6.574-5.349-11.923-11.923-11.923Z"/><path class="cls-1" d="M124.918,2.714v4.924c-2.631-3.101-6.556-5.072-10.932-5.072-7.905,0-14.336,6.431-14.336,14.336s6.431,14.336,14.336,14.336c4.376,0,8.301-1.971,10.932-5.072v4.924h3.404V2.714h-3.404ZM113.986,27.834c-6.028,0-10.932-4.904-10.932-10.932s4.904-10.932,10.932-10.932,10.932,4.904,10.932,10.932-4.904,10.932-10.932,10.932Z"/><path class="cls-1" d="M91.821,6.801c-2.051-2.064-4.725-3.508-7.713-4.025-.797-.138-1.616-.21-2.451-.21s-1.655.072-2.452.21c-2.988.517-5.661,1.961-7.711,4.026-.268.268-.524.547-.769.836V2.714h-3.404v41.786h3.404v-18.333c.264.312.542.612.832.899,2.245,2.233,5.224,3.727,8.538,4.088.514.057,1.034.085,1.563.085s1.051-.029,1.566-.085c3.313-.361,6.29-1.856,8.534-4.087,2.615-2.598,4.236-6.195,4.236-10.164,0-3.936-1.595-7.508-4.172-10.101ZM70.726,16.913c0-3.006,1.213-5.729,3.176-7.705,0,0,.002-.002.003-.003h-.002c1.981-1.997,4.726-3.236,7.755-3.236,1.757,0,3.418.417,4.891,1.157.048.024.095.048.142.073.1.052.2.106.298.161.269.15.531.312.786.485.069.046.139.094.207.144.513.364.992.772,1.433,1.218,1.961,1.977,3.175,4.696,3.175,7.695,0,3.03-1.239,5.776-3.237,7.758-1.977,1.961-4.696,3.174-7.695,3.174s-5.717-1.213-7.694-3.174h0s-.01.009-.01.009c-1.993-1.981-3.227-4.725-3.227-7.756Z"/></svg>