<?xml version="1.0" encoding="UTF-8"?><svg id="Lager_1" xmlns="http://www.w3.org/2000/svg" viewBox="0 0 1430.62 488.96"><defs><style>.cls-1{fill:#d4d4d4;}.cls-2{fill:#fff;}</style></defs><path class="cls-2" d="M1005.02,49.38c-23.92-24.07-55.1-40.9-89.93-46.92-9.29-1.61-18.84-2.46-28.58-2.46s-19.3.85-28.59,2.46c-34.84,6.02-66.01,22.87-89.91,46.94-3.12,3.13-6.11,6.38-8.97,9.75V1.73h-39.69v487.23h39.69v-213.78c3.08,3.65,6.32,7.15,9.7,10.49,26.18,26.04,60.91,43.45,99.55,47.67,5.99.65,12.06.99,18.22.99s12.26-.35,18.26-.99c38.63-4.22,73.34-21.65,99.51-47.67,30.49-30.29,49.39-72.24,49.39-118.5,0-45.9-18.6-87.55-48.65-117.79ZM976.23,257.62c-23.05,22.86-54.76,37.01-89.72,37.01s-66.66-14.14-89.71-37.01l-.01-.01-.12.12c-23.24-23.1-37.63-55.08-37.63-90.43,0-35.06,14.14-66.81,37.03-89.84.01-.02.02-.03.03-.04h-.02c23.1-23.29,55.11-37.73,90.43-37.73,20.49,0,39.86,4.86,57.03,13.49.56.29,1.11.56,1.66.86,1.17.61,2.33,1.24,3.48,1.88,3.14,1.75,6.19,3.63,9.16,5.64.81.55,1.62,1.11,2.41,1.68,5.98,4.25,11.57,9,16.71,14.2,22.87,23.05,37.02,54.77,37.02,89.73,0,35.32-14.45,67.35-37.75,90.45ZM1390.93,1.73v57.42c-30.68-36.17-76.44-59.15-127.47-59.15-92.17,0-167.16,74.99-167.16,167.17s74.99,167.16,167.16,167.16c51.03,0,96.79-22.98,127.47-59.15v57.43h39.69V1.73h-39.69ZM1263.46,294.63c-70.29,0-127.47-57.17-127.47-127.46s57.18-127.48,127.47-127.48,127.47,57.18,127.47,127.48-57.18,127.46-127.47,127.46ZM139.04.41C100.15.41,64.93,16.46,39.68,42.29V1.73H0v330.88h39.68v-193.17c0-54.78,44.57-99.35,99.36-99.35s99.35,44.57,99.35,99.35v192.77h39.68v-192.77C278.07,62.78,215.7.41,139.04.41ZM662.43,167.17C662.43,74.99,587.45,0,495.28,0s-167.16,74.99-167.16,167.17,74.99,167.16,167.16,167.16c70.78,0,131.42-44.22,155.76-106.49h-43.68c-21.6,39.76-63.74,66.79-112.08,66.79-64.8,0-118.46-48.58-126.45-111.26h292.82c.51-5.33.78-10.74.78-16.2ZM369.97,143.69c11.05-59.11,63.04-104,125.31-104s114.26,44.89,125.3,104h-250.61Z"/><path class="cls-1" d="M886.51,167.91l-89.72,89.7-.12.12c-23.24-23.1-37.63-55.08-37.63-90.43,0-35.06,14.14-66.81,37.03-89.84l90.44,90.45Z"/></svg>